<?xml version="1.0" standalone="no"?>
<!DOCTYPE svg PUBLIC "-//W3C//DTD SVG 1.1//EN" "http://www.w3.org/Graphics/SVG/1.1/DTD/svg11.dtd" >
<svg>
<metadata>
Created by FontForge 20090914 at Fri Feb 24 15:53:49 2012
 By root
Copyright (c) 2011, Eduardo Tunni (http://www.tipo.net.ar), with Reserved Font Name "Changa"
</metadata>
<defs>
<font id="ChangaOne-Regular" horiz-adv-x="600" >
  <font-face 
    font-family="Changa One"
    font-weight="400"
    font-stretch="normal"
    units-per-em="1000"
    panose-1="2 0 0 0 0 0 0 0 0 0"
    ascent="800"
    descent="-200"
    x-height="500"
    cap-height="625"
    bbox="-50 -180 1125 882"
    underline-thickness="50"
    underline-position="-50"
    stemh="160"
    stemv="200"
    unicode-range="U+0020-U+FB02"
  />
<missing-glyph horiz-adv-x="150" 
 />
    <glyph glyph-name="fi" unicode="fi" horiz-adv-x="620" 
d="M370 0v370h-100v-370h-200v370h-50v130h50l7 60c9 76 67 115 176 115c51 0 100 -7 161 -25l-31 -117l-113 9v-42h134l166 25v-525h-200z" />
    <glyph glyph-name="fl" unicode="fl" horiz-adv-x="642" 
d="M270 542v-42h60v-130h-60v-370h-200v370h-50v130h50l7 60c9 76 67 115 176 115c51 0 100 -7 161 -25l169 15v-522c16 -3 33 -6 49 -7l-9 -147c-130 0 -240 5 -240 105v439z" />
    <glyph glyph-name=".notdef" horiz-adv-x="150" 
 />
    <glyph glyph-name=".null" horiz-adv-x="0" 
 />
    <glyph glyph-name="CR" horiz-adv-x="150" 
 />
    <glyph glyph-name="space" unicode=" " horiz-adv-x="150" 
 />
    <glyph glyph-name="Adieresis" unicode="&#xc4;" horiz-adv-x="609" 
d="M199 0h-211l162 625h309l162 -625h-211l-23 99h-165zM299 433l-41 -175h92l-40 175h-11zM115 753c0 56 15 79 80 79c64 0 79 -23 79 -79s-15 -77 -79 -77c-65 0 -80 21 -80 77zM334 753c0 56 15 79 80 79c64 0 79 -23 79 -79s-15 -77 -79 -77c-65 0 -80 21 -80 77z" />
    <glyph glyph-name="Agrave" unicode="&#xc0;" horiz-adv-x="609" 
d="M199 0h-211l162 625h309l162 -625h-211l-23 99h-165zM299 433l-41 -175h92l-40 175h-11zM378 664l-174 35c-15 3 -19 6 -26 12l-45 39c-2 3 -4 6 -4 11s3 11 9 18l63 74c5 6 11 11 18 11c4 0 8 -2 11 -4l189 -139z" />
    <glyph glyph-name="Aring" unicode="&#xc5;" horiz-adv-x="609" 
d="M199 0h-211l162 625h309l162 -625h-211l-23 99h-165zM299 433l-41 -175h92l-40 175h-11zM189 767c0 76 32 115 116 115c83 0 115 -39 115 -115c0 -77 -32 -116 -115 -116c-84 0 -116 39 -116 116zM262 788v-68h42c25 0 42 1 42 26v67h-39c-27 0 -45 -1 -45 -25z" />
    <glyph glyph-name="Atilde" unicode="&#xc3;" horiz-adv-x="609" 
d="M199 0h-211l162 625h309l162 -625h-211l-23 99h-165zM299 433l-41 -175h92l-40 175h-11zM447 840l50 -81c-127 -85 -133 -92 -166 -92c-34 0 -56 22 -88 45l-82 -40l-50 81c127 85 133 92 166 92c34 0 56 -22 88 -45z" />
    <glyph glyph-name="B" unicode="B" horiz-adv-x="592" 
d="M50 0v625h324c122 0 167 -47 167 -145c0 -82 -37 -129 -90 -143v-6c88 -15 121 -83 121 -165c0 -93 -46 -166 -163 -166h-359zM328 249h-78v-102h77c33 0 42 22 42 51s-8 51 -41 51zM313 488h-63v-93h62c30 0 38 20 38 46c0 27 -7 47 -37 47z" />
    <glyph glyph-name="C" unicode="C" horiz-adv-x="500" 
d="M465 179l15 -168c-46 -19 -96 -26 -166 -26c-234 0 -294 111 -294 327c0 217 60 328 294 328c46 0 130 -10 166 -26l-30 -153c-42 9 -93 14 -121 14c-65 0 -94 -8 -94 -50v-262c29 -6 55 -8 79 -8c52 0 110 9 151 24z" />
    <glyph glyph-name="Ccedilla" unicode="&#xc7;" horiz-adv-x="500" 
d="M465 179l15 -168c-46 -19 -96 -26 -166 -26c-234 0 -294 111 -294 327c0 217 60 328 294 328c46 0 130 -10 166 -26l-30 -153c-42 9 -93 14 -121 14c-65 0 -94 -8 -94 -50v-262c29 -6 55 -8 79 -8c52 0 110 9 151 24zM224 -26v47h61c49 -18 78 -61 78 -102
c0 -44 -34 -84 -112 -84c-28 0 -63 6 -104 19l11 88h33c27 0 33 4 33 32z" />
    <glyph glyph-name="D" unicode="D" horiz-adv-x="645" 
d="M50 0v625h280c232 0 295 -96 295 -313c0 -216 -63 -312 -295 -312h-280zM333 465h-83v-305h83c46 0 78 4 78 53v199c0 49 -32 53 -78 53z" />
    <glyph glyph-name="E" unicode="E" horiz-adv-x="530" 
d="M450 236h-200v-76h245v-160h-445v625h440l-25 -160h-215v-84h200v-145z" />
    <glyph glyph-name="Eacute" unicode="&#xc9;" horiz-adv-x="530" 
d="M450 236h-200v-76h245v-160h-445v625h440l-25 -160h-215v-84h200v-145zM326 684l-174 -35l-41 57l189 139c3 2 7 4 11 4c7 0 13 -5 18 -11l63 -74c6 -7 9 -13 9 -18s-2 -8 -4 -11l-45 -39c-7 -6 -11 -9 -26 -12z" />
    <glyph glyph-name="Ecircumflex" unicode="&#xca;" horiz-adv-x="530" 
d="M450 236h-200v-76h245v-160h-445v625h440l-25 -160h-215v-84h200v-145zM231 864h48c7 0 11 -4 16 -9l113 -145l-60 -49l-93 63l-93 -63l-60 49l113 145c5 5 9 9 16 9z" />
    <glyph glyph-name="Edieresis" unicode="&#xcb;" horiz-adv-x="530" 
d="M450 236h-200v-76h245v-160h-445v625h440l-25 -160h-215v-84h200v-145zM66 753c0 56 15 79 80 79c64 0 79 -23 79 -79s-15 -77 -79 -77c-65 0 -80 21 -80 77zM285 753c0 56 15 79 80 79c64 0 79 -23 79 -79s-15 -77 -79 -77c-65 0 -80 21 -80 77z" />
    <glyph glyph-name="Egrave" unicode="&#xc8;" horiz-adv-x="530" 
d="M450 236h-200v-76h245v-160h-445v625h440l-25 -160h-215v-84h200v-145zM328 664l-174 35c-15 3 -19 6 -26 12l-45 39c-2 3 -4 6 -4 11s3 11 9 18l63 74c5 6 11 11 18 11c4 0 8 -2 11 -4l189 -139z" />
    <glyph glyph-name="Eth" unicode="&#xd0;" horiz-adv-x="645" 
d="M0 243v98c0 31 20 36 50 37v247h280c232 0 295 -96 295 -313c0 -216 -63 -312 -295 -312h-280v243h-50zM333 465h-83v-87h80v-97c0 -35 -26 -38 -62 -38h-18v-83h83c46 0 78 4 78 53v199c0 49 -32 53 -78 53z" />
    <glyph glyph-name="Euro" unicode="&#x20ac;" horiz-adv-x="563" 
d="M439 206h-160l-2 -53c29 -6 55 -8 79 -8c52 0 105 9 147 24l9 -158c-47 -19 -97 -26 -167 -26c-194 0 -265 61 -281 221h-49l7 82h424zM453 338h-424l7 82h42c25 158 105 220 297 220c36 0 100 -7 148 -19l-28 -146h-135c-33 0 -65 -4 -67 -49v-6h167z" />
    <glyph glyph-name="F" unicode="F" horiz-adv-x="470" 
d="M420 232h-170v-232h-200v625h410l-25 -160h-185v-84h170v-149z" />
    <glyph glyph-name="G" unicode="G" 
d="M370 184v27h-51v153h241v-334c-82 -31 -176 -45 -246 -45c-234 0 -294 111 -294 327c0 217 58 328 317 328c51 0 153 -13 193 -26l-30 -153c-52 9 -114 14 -149 14c-79 0 -116 -8 -116 -50v-283h66c40 0 69 3 69 42z" />
    <glyph glyph-name="H" unicode="H" horiz-adv-x="650" 
d="M400 0v221h-150v-221h-200v625h200v-221h150v221h200v-625h-200z" />
    <glyph glyph-name="I" unicode="I" horiz-adv-x="300" 
d="M50 0v625h200v-625h-200z" />
    <glyph glyph-name="Iacute" unicode="&#xcd;" horiz-adv-x="300" 
d="M50 0v625h200v-625h-200zM221 684l-174 -35l-41 57l189 139c3 2 7 4 11 4c7 0 13 -5 18 -11l63 -74c6 -7 9 -13 9 -18s-2 -8 -4 -11l-45 -39c-7 -6 -11 -9 -26 -12z" />
    <glyph glyph-name="Icircumflex" unicode="&#xce;" horiz-adv-x="300" 
d="M50 0v625h200v-625h-200zM126 864h48c7 0 11 -4 16 -9l113 -145l-60 -49l-93 63l-93 -63l-60 49l113 145c5 5 9 9 16 9z" />
    <glyph glyph-name="Idieresis" unicode="&#xcf;" horiz-adv-x="300" 
d="M50 0v625h200v-625h-200zM-39 753c0 56 15 79 80 79c64 0 79 -23 79 -79s-15 -77 -79 -77c-65 0 -80 21 -80 77zM180 753c0 56 15 79 80 79c64 0 79 -23 79 -79s-15 -77 -79 -77c-65 0 -80 21 -80 77z" />
    <glyph glyph-name="Igrave" unicode="&#xcc;" horiz-adv-x="300" 
d="M50 0v625h200v-625h-200zM224 664l-174 35c-15 3 -19 6 -26 12l-45 39c-2 3 -4 6 -4 11s3 11 9 18l63 74c5 6 11 11 18 11c4 0 8 -2 11 -4l189 -139z" />
    <glyph glyph-name="J" unicode="J" horiz-adv-x="366" 
d="M20 0l-20 160h83c27 0 48 2 48 30v275h-83v160h283v-460c0 -108 -55 -165 -155 -165h-156z" />
    <glyph glyph-name="K" unicode="K" horiz-adv-x="593" 
d="M250 272v-272h-200v625h200v-255h4c1 16 5 37 10 48l98 207h216l-150 -307l155 -318h-216l-103 224c-5 11 -9 32 -10 48h-4z" />
    <glyph glyph-name="L" unicode="L" horiz-adv-x="455" 
d="M450 0h-400v625h200v-465h200v-160z" />
    <glyph glyph-name="Lslash" unicode="&#x141;" horiz-adv-x="455" 
d="M0 220c-32 98 -33 103 -33 108c0 21 22 30 50 39l302 99c31 -98 32 -103 32 -107c0 -23 -21 -32 -50 -41zM450 0h-400v625h200v-465h200v-160z" />
    <glyph glyph-name="M" unicode="M" horiz-adv-x="811" 
d="M234 0h-209l38 625h261l78 -318h7l78 318h261l38 -625h-209l-12 303h-7l-76 -303h-153l-77 303h-6z" />
    <glyph glyph-name="N" unicode="N" horiz-adv-x="655" 
d="M417 0l-153 222c-7 10 -9 32 -10 48h-4v-270h-200v625h188l153 -222c7 -10 9 -32 10 -48h4v270h200v-625h-188z" />
    <glyph glyph-name="Ntilde" unicode="&#xd1;" horiz-adv-x="655" 
d="M417 0l-153 222c-7 10 -9 32 -10 48h-4v-270h-200v625h188l153 -222c7 -10 9 -32 10 -48h4v270h200v-625h-188zM470 840l50 -81c-127 -85 -133 -92 -166 -92c-34 0 -56 22 -88 45l-82 -40l-50 81c127 85 133 92 166 92c34 0 56 -22 88 -45z" />
    <glyph glyph-name="O" unicode="O" horiz-adv-x="630" 
d="M20 312c0 217 63 328 295 328s295 -111 295 -328c0 -216 -63 -327 -295 -327s-295 111 -295 327zM235 416v-260h83c46 0 78 4 78 53v260h-84c-46 0 -77 -4 -77 -53z" />
    <glyph glyph-name="OE" unicode="&#x152;" horiz-adv-x="856" 
d="M821 0h-380c-35 -10 -77 -15 -126 -15c-232 0 -295 111 -295 327c0 217 63 328 295 328c49 0 91 -5 126 -15h375l-25 -160h-195v-84h180v-145h-180v-76h225v-160zM235 416v-260h83c43 0 75 3 78 46v267h-84c-46 0 -77 -4 -77 -53z" />
    <glyph glyph-name="Oacute" unicode="&#xd3;" horiz-adv-x="630" 
d="M20 312c0 217 63 328 295 328s295 -111 295 -328c0 -216 -63 -327 -295 -327s-295 111 -295 327zM235 416v-260h83c46 0 78 4 78 53v260h-84c-46 0 -77 -4 -77 -53zM386 684l-174 -35l-41 57l189 139c3 2 7 4 11 4c7 0 13 -5 18 -11l63 -74c6 -7 9 -13 9 -18
s-2 -8 -4 -11l-45 -39c-7 -6 -11 -9 -26 -12z" />
    <glyph glyph-name="Ocircumflex" unicode="&#xd4;" horiz-adv-x="630" 
d="M20 312c0 217 63 328 295 328s295 -111 295 -328c0 -216 -63 -327 -295 -327s-295 111 -295 327zM235 416v-260h83c46 0 78 4 78 53v260h-84c-46 0 -77 -4 -77 -53zM291 864h48c7 0 11 -4 16 -9l113 -145l-60 -49l-93 63l-93 -63l-60 49l113 145c5 5 9 9 16 9z" />
    <glyph glyph-name="Odieresis" unicode="&#xd6;" horiz-adv-x="630" 
d="M20 312c0 217 63 328 295 328s295 -111 295 -328c0 -216 -63 -327 -295 -327s-295 111 -295 327zM235 416v-260h83c46 0 78 4 78 53v260h-84c-46 0 -77 -4 -77 -53zM126 753c0 56 15 79 80 79c64 0 79 -23 79 -79s-15 -77 -79 -77c-65 0 -80 21 -80 77zM345 753
c0 56 15 79 80 79c64 0 79 -23 79 -79s-15 -77 -79 -77c-65 0 -80 21 -80 77z" />
    <glyph glyph-name="Ograve" unicode="&#xd2;" horiz-adv-x="630" 
d="M20 312c0 217 63 328 295 328s295 -111 295 -328c0 -216 -63 -327 -295 -327s-295 111 -295 327zM235 416v-260h83c46 0 78 4 78 53v260h-84c-46 0 -77 -4 -77 -53zM388 664l-174 35c-15 3 -19 6 -26 12l-45 39c-2 3 -4 6 -4 11s3 11 9 18l63 74c5 6 11 11 18 11
c4 0 8 -2 11 -4l189 -139z" />
    <glyph glyph-name="Oslash" unicode="&#xd8;" horiz-adv-x="630" 
d="M464 486h-15l-193 -337h15l-94 -164c-9 -16 -15 -25 -43 -25h-71l108 189h14l193 337h-14l88 154c9 16 15 25 43 25h71zM20 312c0 217 63 328 295 328s295 -111 295 -328c0 -216 -63 -327 -295 -327s-295 111 -295 327zM235 416v-260h83c46 0 78 4 78 53v260h-84
c-46 0 -77 -4 -77 -53z" />
    <glyph glyph-name="Otilde" unicode="&#xd5;" horiz-adv-x="630" 
d="M20 312c0 217 63 328 295 328s295 -111 295 -328c0 -216 -63 -327 -295 -327s-295 111 -295 327zM235 416v-260h83c46 0 78 4 78 53v260h-84c-46 0 -77 -4 -77 -53zM458 840l50 -81c-127 -85 -133 -92 -166 -92c-34 0 -56 22 -88 45l-82 -40l-50 81c127 85 133 92 166 92
c34 0 56 -22 88 -45z" />
    <glyph glyph-name="P" unicode="P" horiz-adv-x="590" 
d="M380 151h-130v-151h-200v625h315c171 0 215 -106 215 -231c0 -103 -29 -243 -200 -243zM250 465v-154h46c40 0 69 3 69 42v70c0 39 -29 42 -69 42h-46z" />
    <glyph glyph-name="Q" unicode="Q" horiz-adv-x="630" 
d="M385 23l-85 -23c-230 0 -280 123 -280 312c0 217 63 328 295 328c229 0 295 -111 295 -328c0 -90 -23 -161 -53 -205l72 -42l-52 -115l-192 35v38zM235 156h83c46 0 78 4 78 53v260h-84c-46 0 -77 -4 -77 -53v-260z" />
    <glyph glyph-name="R" unicode="R" horiz-adv-x="615" 
d="M595 0h-220l-82 186h-43v-186h-200v625h315c171 0 215 -100 215 -219c0 -72 -16 -158 -93 -198zM250 465v-125h46c40 0 69 3 69 42v41c0 39 -29 42 -69 42h-46z" />
    <glyph glyph-name="S" unicode="S" horiz-adv-x="577" 
d="M25 11l28 165c56 -14 124 -23 179 -23c44 0 75 2 105 6v50l-90 8c-171 15 -213 83 -213 199c0 170 61 224 259 224c76 0 152 -8 225 -25l-25 -160c-56 9 -102 15 -162 15c-33 0 -51 -1 -82 -5v-49l72 -7c185 -18 231 -93 231 -200c0 -217 -141 -224 -286 -224
c-83 0 -164 8 -241 26z" />
    <glyph glyph-name="Scaron" unicode="&#x160;" horiz-adv-x="577" 
d="M25 11l28 165c56 -14 124 -23 179 -23c44 0 75 2 105 6v50l-90 8c-171 15 -213 83 -213 199c0 170 61 224 259 224c76 0 152 -8 225 -25l-25 -160c-56 9 -102 15 -162 15c-33 0 -51 -1 -82 -5v-49l72 -7c185 -18 231 -93 231 -200c0 -217 -141 -224 -286 -224
c-83 0 -164 8 -241 26zM312 661h-48c-7 0 -11 4 -16 9l-113 145l60 49l93 -63l93 63l60 -49l-113 -145c-5 -5 -9 -9 -16 -9z" />
    <glyph glyph-name="T" unicode="T" horiz-adv-x="500" 
d="M495 465h-145v-465h-200v465h-145v160h490v-160z" />
    <glyph glyph-name="Thorn" unicode="&#xde;" horiz-adv-x="590" 
d="M380 76h-130v-76h-200v625h200v-75h115c171 0 215 -106 215 -231c0 -103 -29 -243 -200 -243zM250 390v-154h46c40 0 69 3 69 42v70c0 39 -29 42 -69 42h-46z" />
    <glyph glyph-name="U" unicode="U" horiz-adv-x="607" 
d="M235 625v-469h71c46 0 66 4 66 53v416h200v-351c0 -216 -49 -289 -269 -289s-268 73 -268 289v351h200z" />
    <glyph glyph-name="Uacute" unicode="&#xda;" horiz-adv-x="617" 
d="M240 625v-469h71c46 0 66 4 66 53v416h200v-351c0 -216 -49 -289 -269 -289s-268 73 -268 289v351h200zM379 684l-174 -35l-41 57l189 139c3 2 7 4 11 4c7 0 13 -5 18 -11l63 -74c6 -7 9 -13 9 -18s-2 -8 -4 -11l-45 -39c-7 -6 -11 -9 -26 -12z" />
    <glyph glyph-name="Ucircumflex" unicode="&#xdb;" horiz-adv-x="617" 
d="M240 625v-469h71c46 0 66 4 66 53v416h200v-351c0 -216 -49 -289 -269 -289s-268 73 -268 289v351h200zM284 864h48c7 0 11 -4 16 -9l113 -145l-60 -49l-93 63l-93 -63l-60 49l113 145c5 5 9 9 16 9z" />
    <glyph glyph-name="Udieresis" unicode="&#xdc;" horiz-adv-x="617" 
d="M240 625v-469h71c46 0 66 4 66 53v416h200v-351c0 -216 -49 -289 -269 -289s-268 73 -268 289v351h200zM119 753c0 56 15 79 80 79c64 0 79 -23 79 -79s-15 -77 -79 -77c-65 0 -80 21 -80 77zM338 753c0 56 15 79 80 79c64 0 79 -23 79 -79s-15 -77 -79 -77
c-65 0 -80 21 -80 77z" />
    <glyph glyph-name="Ugrave" unicode="&#xd9;" horiz-adv-x="617" 
d="M240 625v-469h71c46 0 66 4 66 53v416h200v-351c0 -216 -49 -289 -269 -289s-268 73 -268 289v351h200zM382 664l-174 35c-15 3 -19 6 -26 12l-45 39c-2 3 -4 6 -4 11s3 11 9 18l63 74c5 6 11 11 18 11c4 0 8 -2 11 -4l189 -139z" />
    <glyph glyph-name="V" unicode="V" horiz-adv-x="602" 
d="M391 625h211l-155 -625h-292l-155 625h211l85 -397h9z" />
    <glyph glyph-name="W" unicode="W" horiz-adv-x="821" 
d="M612 625h209l-98 -625h-261l-46 230h-12l-45 -230h-261l-98 625h209l47 -349h6l72 349h153l71 -349h6z" />
    <glyph glyph-name="X" unicode="X" horiz-adv-x="592" 
d="M227 625l69 -167h10l69 167h217l-139 -302l139 -323h-222l-75 180h-9l-74 -180h-212l136 317l-136 308h227z" />
    <glyph glyph-name="Y" unicode="Y" horiz-adv-x="560" 
d="M221 625l55 -220h7l56 220h221l-180 -455v-170h-200v170l-180 455h221z" />
    <glyph glyph-name="Yacute" unicode="&#xdd;" horiz-adv-x="560" 
d="M221 625l55 -220h7l56 220h221l-180 -455v-170h-200v170l-180 455h221zM351 698l-174 -35l-41 57l189 139c3 2 7 4 11 4c7 0 13 -5 18 -11l63 -74c6 -7 9 -13 9 -18s-2 -8 -4 -11l-45 -39c-7 -6 -11 -9 -26 -12z" />
    <glyph glyph-name="Ydieresis" unicode="&#x178;" horiz-adv-x="560" 
d="M221 625l55 -220h7l56 220h221l-180 -455v-170h-200v170l-180 455h221zM91 753c0 56 15 79 80 79c64 0 79 -23 79 -79s-15 -77 -79 -77c-65 0 -80 21 -80 77zM310 753c0 56 15 79 80 79c64 0 79 -23 79 -79s-15 -77 -79 -77c-65 0 -80 21 -80 77z" />
    <glyph glyph-name="Z" unicode="Z" horiz-adv-x="589" 
d="M564 0h-539v125l256 334l-3 6h-210l-18 160h510v-125l-253 -334l3 -6h254v-160z" />
    <glyph glyph-name="Zcaron" unicode="&#x17d;" horiz-adv-x="589" 
d="M564 0h-539v125l256 334l-3 6h-210l-18 160h510v-125l-253 -334l3 -6h254v-160zM318 661h-48c-7 0 -11 4 -16 9l-113 145l60 49l93 -63l93 63l60 -49l-113 -145c-5 -5 -9 -9 -16 -9z" />
    <glyph glyph-name="a" unicode="a" horiz-adv-x="567" 
d="M287 515c130 0 240 -33 240 -165v-350h-100l-57 57c-39 -47 -112 -72 -187 -72s-168 29 -168 165s116 180 272 180h40v36c-16 1 -34 2 -53 2c-63 0 -140 -9 -194 -27l-24 143c71 22 154 31 231 31zM217 172v-41h41c38 0 69 3 69 36v47h-41c-40 0 -69 -3 -69 -42z" />
    <glyph glyph-name="aacute" unicode="&#xe1;" horiz-adv-x="567" 
d="M287 515c130 0 240 -33 240 -165v-350h-100l-57 57c-39 -47 -112 -72 -187 -72s-168 29 -168 165s116 180 272 180h40v36c-16 1 -34 2 -53 2c-63 0 -140 -9 -194 -27l-24 143c71 22 154 31 231 31zM217 172v-41h41c38 0 69 3 69 36v47h-41c-40 0 -69 -3 -69 -42zM386 574
l-174 -35l-41 57l189 139c3 2 7 4 11 4c7 0 13 -5 18 -11l63 -74c6 -7 9 -13 9 -18s-2 -8 -4 -11l-45 -39c-7 -6 -11 -9 -26 -12z" />
    <glyph glyph-name="acircumflex" unicode="&#xe2;" horiz-adv-x="567" 
d="M287 515c130 0 240 -33 240 -165v-350h-100l-57 57c-39 -47 -112 -72 -187 -72s-168 29 -168 165s116 180 272 180h40v36c-16 1 -34 2 -53 2c-63 0 -140 -9 -194 -27l-24 143c71 22 154 31 231 31zM217 172v-41h41c38 0 69 3 69 36v47h-41c-40 0 -69 -3 -69 -42zM256 740
h48c7 0 11 -4 16 -9l113 -145l-60 -49l-93 63l-93 -63l-60 49l113 145c5 5 9 9 16 9z" />
    <glyph glyph-name="acute" unicode="&#xb4;" horiz-adv-x="429" 
d="M285 574l-174 -35l-41 57l189 139c3 2 7 4 11 4c7 0 13 -5 18 -11l63 -74c6 -7 9 -13 9 -18s-2 -8 -4 -11l-45 -39c-7 -6 -11 -9 -26 -12z" />
    <glyph glyph-name="adieresis" unicode="&#xe4;" horiz-adv-x="567" 
d="M287 515c130 0 240 -33 240 -165v-350h-100l-57 57c-39 -47 -112 -72 -187 -72s-168 29 -168 165s116 180 272 180h40v36c-16 1 -34 2 -53 2c-63 0 -140 -9 -194 -27l-24 143c71 22 154 31 231 31zM217 172v-41h41c38 0 69 3 69 36v47h-41c-40 0 -69 -3 -69 -42zM92 629
c0 56 15 79 80 79c64 0 79 -23 79 -79s-15 -77 -79 -77c-65 0 -80 21 -80 77zM311 629c0 56 15 79 80 79c64 0 79 -23 79 -79s-15 -77 -79 -77c-65 0 -80 21 -80 77z" />
    <glyph glyph-name="ae" unicode="&#xe6;" horiz-adv-x="852" 
d="M287 515c57 0 110 -7 151 -25c36 17 81 25 139 25c183 0 245 -39 245 -180c0 -112 -63 -165 -295 -165v-35c20 -2 40 -3 60 -3c62 0 125 9 188 30l24 -147c-71 -19 -145 -30 -222 -30c-101 0 -166 25 -204 75c-39 -49 -98 -75 -175 -75c-117 0 -183 44 -183 165
c0 136 116 180 272 180h40v36c-16 1 -34 2 -53 2c-63 0 -140 -9 -194 -27l-24 143c71 22 154 31 231 31zM527 327v-41h41c40 0 69 3 69 42v41h-41c-40 0 -69 -3 -69 -42zM217 172v-41h41c38 0 66 3 69 36v47h-41c-40 0 -69 -3 -69 -42z" />
    <glyph glyph-name="agrave" unicode="&#xe0;" horiz-adv-x="567" 
d="M287 515c130 0 240 -33 240 -165v-350h-100l-57 57c-39 -47 -112 -72 -187 -72s-168 29 -168 165s116 180 272 180h40v36c-16 1 -34 2 -53 2c-63 0 -140 -9 -194 -27l-24 143c71 22 154 31 231 31zM217 172v-41h41c38 0 69 3 69 36v47h-41c-40 0 -69 -3 -69 -42zM354 539
l-174 35c-15 3 -19 6 -26 12l-45 39c-2 3 -4 6 -4 11s3 11 9 18l63 74c5 6 11 11 18 11c4 0 8 -2 11 -4l189 -139z" />
    <glyph glyph-name="ampersand" unicode="&#x26;" horiz-adv-x="664" 
d="M439 -115l-25 136c-64 -19 -133 -36 -194 -36c-98 0 -175 46 -175 195c0 82 21 168 124 183v4l-85 29c0 191 79 229 185 229c81 0 140 -9 197 -21l-29 -147h-89c-41 0 -61 -7 -61 -42v-33h367l-22 -140h-70v-342zM335 156c16 0 35 1 54 4l-15 82h-87v-41
c0 -31 18 -45 48 -45z" />
    <glyph glyph-name="aring" unicode="&#xe5;" horiz-adv-x="567" 
d="M287 515c130 0 240 -33 240 -165v-350h-100l-57 57c-39 -47 -112 -72 -187 -72s-168 29 -168 165s116 180 272 180h40v36c-16 1 -34 2 -53 2c-63 0 -140 -9 -194 -27l-24 143c71 22 154 31 231 31zM217 172v-41h41c38 0 69 3 69 36v47h-41c-40 0 -69 -3 -69 -42zM166 643
c0 76 32 115 116 115c83 0 115 -39 115 -115c0 -77 -32 -116 -115 -116c-84 0 -116 39 -116 116zM239 664v-68h42c25 0 42 1 42 26v67h-39c-27 0 -45 -1 -45 -25z" />
    <glyph glyph-name="asterisk" unicode="*" horiz-adv-x="536" 
d="M341 580l-29 -89l75 57l54 16c4 1 7 2 11 2c10 0 20 -7 27 -28l23 -71c3 -9 4 -16 4 -21c0 -14 -7 -21 -17 -24l-56 -16h-95l78 -55l33 -47c3 -5 6 -10 6 -15c0 -9 -6 -18 -20 -29l-60 -44c-11 -9 -20 -12 -28 -12s-14 4 -19 11l-42 48l-22 82l-26 -83l-34 -46
c-5 -7 -11 -11 -19 -11c-7 0 -16 3 -27 11l-61 44c-15 11 -21 20 -21 29c0 5 2 10 6 15l35 47l73 53h-91l-55 18c-10 3 -18 10 -18 24c0 6 1 12 4 20l23 72c7 21 17 29 27 29c3 0 7 -1 10 -2l56 -18l74 -55l-29 88v58c0 15 8 27 37 27h76c29 0 37 -12 37 -27v-58z" />
    <glyph glyph-name="at" unicode="@" horiz-adv-x="867" 
d="M537 187v-56h11c38 0 66 3 69 36v62h-11c-40 0 -69 -3 -69 -42zM40 176v83c0 269 184 341 418 341c250 0 359 -61 359 -193v-407h-100l-57 63c-39 -47 -101 -72 -176 -72s-153 32 -153 168s90 191 246 191h40v73c-31 6 -94 10 -145 10c-110 0 -217 -7 -217 -143v-197
c0 -136 107 -143 217 -143h188v-94c-70 -14 -133 -21 -202 -21c-234 0 -418 72 -418 341z" />
    <glyph glyph-name="atilde" unicode="&#xe3;" horiz-adv-x="567" 
d="M287 515c130 0 240 -33 240 -165v-350h-100l-57 57c-39 -47 -112 -72 -187 -72s-168 29 -168 165s116 180 272 180h40v36c-16 1 -34 2 -53 2c-63 0 -140 -9 -194 -27l-24 143c71 22 154 31 231 31zM217 172v-41h41c38 0 69 3 69 36v47h-41c-40 0 -69 -3 -69 -42zM424 716
l50 -81c-127 -85 -133 -92 -166 -92c-34 0 -56 22 -88 45l-82 -40l-50 81c127 85 133 92 166 92c34 0 56 -22 88 -45z" />
    <glyph glyph-name="b" unicode="b" horiz-adv-x="595" 
d="M50 25v625l200 15v-166c26 11 59 16 100 16c171 0 215 -140 215 -265c0 -195 -96 -265 -256 -265c-77 0 -159 7 -259 40zM250 332v-201h31c40 0 69 3 69 42v196h-31c-38 0 -67 -3 -69 -37z" />
    <glyph glyph-name="backslash" unicode="\" horiz-adv-x="503" 
d="M389 -15l-389 680h71c28 0 34 -9 43 -25l389 -680h-71c-28 0 -34 9 -43 25z" />
    <glyph glyph-name="bar" unicode="|" horiz-adv-x="420" 
d="M150 -180v884h120v-884h-120z" />
    <glyph glyph-name="braceleft" unicode="{" horiz-adv-x="339" 
d="M241 102l-15 -94l83 -7l-9 -147c-130 0 -250 5 -250 105l15 200l-65 16v112l65 16l-15 202c0 100 120 105 250 105l9 -147c-1 0 -3 0 -83 -7l15 -96c0 -58 -14 -98 -56 -123v-12c42 -25 56 -65 56 -123z" />
    <glyph glyph-name="braceright" unicode="}" horiz-adv-x="339" 
d="M113 8l-15 94c0 58 14 98 56 123v12c-42 25 -56 65 -56 123l15 96c-80 7 -82 7 -83 7l9 147c130 0 250 -5 250 -105l-15 -202l65 -16v-112l-65 -16l15 -200c0 -100 -120 -105 -250 -105l-9 147z" />
    <glyph glyph-name="bracketleft" unicode="[" horiz-adv-x="339" 
d="M50 -41v546c0 100 120 105 250 105l9 -147c-1 0 -3 0 -83 -7v-448l83 -7l-9 -147c-130 0 -250 5 -250 105z" />
    <glyph glyph-name="bracketright" unicode="]" horiz-adv-x="339" 
d="M289 505v-546c0 -100 -120 -105 -250 -105l-9 147l83 7v448c-80 7 -82 7 -83 7l9 147c130 0 250 -5 250 -105z" />
    <glyph glyph-name="breve" unicode="&#x2d8;" horiz-adv-x="385" 
d="M127 704c9 -36 37 -55 65 -55s56 19 65 55l106 -15c-22 -93 -96 -139 -171 -139s-150 46 -171 139z" />
    <glyph glyph-name="brokenbar" unicode="&#xa6;" horiz-adv-x="420" 
d="M150 368v336h120v-336h-120zM150 -180v336h120v-336h-120z" />
    <glyph glyph-name="bullet" unicode="&#x2022;" horiz-adv-x="342" 
d="M30 249c0 98 26 139 142 139c114 0 140 -41 140 -139c0 -99 -26 -137 -140 -137c-116 0 -142 38 -142 137z" />
    <glyph glyph-name="c" unicode="c" horiz-adv-x="459" 
d="M417 150l12 -144c-37 -15 -78 -21 -134 -21c-190 0 -265 90 -265 265s75 265 265 265c37 0 105 -8 134 -21l-24 -136c-34 7 -61 11 -84 11c-52 0 -76 -19 -76 -53v-179c24 -5 45 -6 64 -6c42 0 75 7 108 19z" />
    <glyph glyph-name="caron" unicode="&#x2c7;" horiz-adv-x="385" 
d="M216 537h-48c-7 0 -11 4 -16 9l-113 145l60 49l93 -63l93 63l60 -49l-113 -145c-5 -5 -9 -9 -16 -9z" />
    <glyph glyph-name="ccedilla" unicode="&#xe7;" horiz-adv-x="459" 
d="M417 150l12 -144c-37 -15 -78 -21 -134 -21c-190 0 -265 90 -265 265s75 265 265 265c37 0 105 -8 134 -21l-24 -136c-34 7 -61 11 -84 11c-52 0 -76 -19 -76 -53v-179c24 -5 45 -6 64 -6c42 0 75 7 108 19zM208 -26v47h61c49 -18 78 -61 78 -102c0 -44 -34 -84 -112 -84
c-28 0 -63 6 -104 19l11 88h33c27 0 33 4 33 32z" />
    <glyph glyph-name="cedilla" unicode="&#xb8;" horiz-adv-x="469" 
d="M194 -26v47h61c49 -18 78 -61 78 -102c0 -44 -34 -84 -112 -84c-28 0 -63 6 -104 19l11 88h33c27 0 33 4 33 32z" />
    <glyph glyph-name="cent" unicode="&#xa2;" horiz-adv-x="459" 
d="M39 245c0 126 34 228 148 259l4 96h128l-4 -87c33 -3 72 -9 104 -17l-28 -145h-70c-33 0 -64 -4 -67 -49l-6 -113c17 -2 32 -3 49 -3c33 0 69 4 104 15l6 -145c-33 -13 -67 -20 -110 -21l-4 -99h-129l4 108c-92 21 -129 80 -129 201z" />
    <glyph glyph-name="circumflex" unicode="&#x2c6;" horiz-adv-x="385" 
d="M168 740h48c7 0 11 -4 16 -9l113 -145l-60 -49l-93 63l-93 -63l-60 49l113 145c5 5 9 9 16 9z" />
    <glyph glyph-name="colon" unicode=":" horiz-adv-x="277" 
d="M30 99c0 76 20 107 109 107c88 0 108 -31 108 -107s-20 -105 -108 -105c-89 0 -109 29 -109 105zM30 399c0 76 20 107 109 107c88 0 108 -31 108 -107s-20 -105 -108 -105c-89 0 -109 29 -109 105z" />
    <glyph glyph-name="comma" unicode="," horiz-adv-x="277" 
d="M30 99c0 76 20 107 109 107c88 0 108 -31 108 -107v-9v-3c-3 -51 -19 -74 -33 -102l-68 -136l-89 29l33 144c-48 8 -60 32 -60 77z" />
    <glyph glyph-name="copyright" unicode="&#xa9;" horiz-adv-x="563" 
d="M368 375l8 -87c-25 -10 -49 -14 -82 -14c-113 0 -141 53 -141 157s28 157 141 157c22 0 63 -5 82 -14l-15 -78c-21 5 -46 7 -60 7c-27 0 -40 -3 -40 -19v-120c12 -1 24 -3 33 -3c24 0 52 5 74 14zM30 431c0 165 71 251 252 251c180 0 251 -86 251 -251
c0 -166 -71 -252 -251 -252c-181 0 -252 86 -252 252zM80 431c0 -156 57 -206 202 -206c144 0 201 50 201 206c0 155 -57 205 -201 205c-145 0 -202 -50 -202 -205z" />
    <glyph glyph-name="d" unicode="d" horiz-adv-x="595" 
d="M545 0h-100l-43 42c-29 -38 -78 -57 -157 -57c-171 0 -215 140 -215 265c0 103 29 250 200 250h115v150l200 15v-665zM245 327v-196h31c38 0 66 3 69 36v202h-31c-40 0 -69 -3 -69 -42z" />
    <glyph glyph-name="dagger" unicode="&#x2020;" horiz-adv-x="540" 
d="M510 330l-162 20l32 -400h-220l31 400l-161 -20v190l155 -20l-25 165h220l-25 -168l155 23v-190z" />
    <glyph glyph-name="daggerdbl" unicode="&#x2021;" horiz-adv-x="540" 
d="M510 330l-159 20l-4 -43l4 -43l159 21v-190l-146 21l16 -166h-220l15 166l-145 -21v190l159 -20l4 42l-4 43l-159 -20v190l145 -21l-15 166h220l-16 -166l146 21v-190z" />
    <glyph glyph-name="degree" unicode="&#xb0;" horiz-adv-x="407" 
d="M30 531c0 114 49 173 174 173c124 0 173 -59 173 -173c0 -115 -49 -174 -173 -174c-125 0 -174 59 -174 174zM140 562v-101h63c37 0 62 1 62 39v100h-57c-41 0 -68 -1 -68 -38z" />
    <glyph glyph-name="dieresis" unicode="&#xa8;" horiz-adv-x="430" 
d="M26 629c0 56 15 79 80 79c64 0 79 -23 79 -79s-15 -77 -79 -77c-65 0 -80 21 -80 77zM245 629c0 56 15 79 80 79c64 0 79 -23 79 -79s-15 -77 -79 -77c-65 0 -80 21 -80 77z" />
    <glyph glyph-name="divide" unicode="&#xf7;" 
d="M72 240v144h455v-144h-455zM377 547v-90c0 -16 -9 -29 -39 -29h-80c-30 0 -39 13 -39 29v90c0 16 9 28 39 28h80c30 0 39 -12 39 -28zM377 167v-90c0 -16 -9 -29 -39 -29h-80c-30 0 -39 13 -39 29v90c0 16 9 28 39 28h80c30 0 39 -12 39 -28z" />
    <glyph glyph-name="dollar" unicode="$" horiz-adv-x="551" 
d="M225 718h127l-3 -80c46 -3 101 -9 140 -16l-29 -155h-150c-49 0 -58 -14 -59 -53l63 -7c163 -18 202 -86 202 -188c0 -175 -89 -211 -192 -218l-3 -101h-129l4 101c-55 4 -111 11 -161 24l29 159c53 -14 117 -22 174 -22c23 0 46 1 71 4v42l-62 7
c-165 17 -195 100 -195 203c0 153 71 204 170 217z" />
    <glyph glyph-name="dotaccent" unicode="&#x2d9;" horiz-adv-x="265" 
d="M37 632c0 70 18 97 96 97c77 0 95 -27 95 -97c0 -71 -18 -95 -95 -95c-78 0 -96 24 -96 95z" />
    <glyph glyph-name="dotlessi" unicode="&#x131;" horiz-adv-x="300" 
d="M50 0v475l200 25v-500h-200z" />
    <glyph glyph-name="e" unicode="e" horiz-adv-x="565" 
d="M245 170v-35c20 -2 40 -3 60 -3c62 0 125 10 188 30l24 -147c-71 -19 -145 -30 -222 -30c-190 0 -265 90 -265 265s75 265 265 265c183 0 245 -39 245 -180c0 -112 -63 -165 -295 -165zM245 327v-41h41c40 0 69 3 69 42v41h-41c-40 0 -69 -3 -69 -42z" />
    <glyph glyph-name="eacute" unicode="&#xe9;" horiz-adv-x="565" 
d="M245 170v-35c20 -2 40 -3 60 -3c62 0 125 10 188 30l24 -147c-71 -19 -145 -30 -222 -30c-190 0 -265 90 -265 265s75 265 265 265c183 0 245 -39 245 -180c0 -112 -63 -165 -295 -165zM245 327v-41h41c40 0 69 3 69 42v41h-41c-40 0 -69 -3 -69 -42zM390 574l-174 -35
l-41 57l189 139c3 2 7 4 11 4c7 0 13 -5 18 -11l63 -74c6 -7 9 -13 9 -18s-2 -8 -4 -11l-45 -39c-7 -6 -11 -9 -26 -12z" />
    <glyph glyph-name="ecircumflex" unicode="&#xea;" horiz-adv-x="565" 
d="M245 170v-35c20 -2 40 -3 60 -3c62 0 125 10 188 30l24 -147c-71 -19 -145 -30 -222 -30c-190 0 -265 90 -265 265s75 265 265 265c183 0 245 -39 245 -180c0 -112 -63 -165 -295 -165zM245 327v-41h41c40 0 69 3 69 42v41h-41c-40 0 -69 -3 -69 -42zM260 740h48
c7 0 11 -4 16 -9l113 -145l-60 -49l-93 63l-93 -63l-60 49l113 145c5 5 9 9 16 9z" />
    <glyph glyph-name="edieresis" unicode="&#xeb;" horiz-adv-x="565" 
d="M245 170v-35c20 -2 40 -3 60 -3c62 0 125 10 188 30l24 -147c-71 -19 -145 -30 -222 -30c-190 0 -265 90 -265 265s75 265 265 265c183 0 245 -39 245 -180c0 -112 -63 -165 -295 -165zM245 327v-41h41c40 0 69 3 69 42v41h-41c-40 0 -69 -3 -69 -42zM96 629
c0 56 15 79 80 79c64 0 79 -23 79 -79s-15 -77 -79 -77c-65 0 -80 21 -80 77zM315 629c0 56 15 79 80 79c64 0 79 -23 79 -79s-15 -77 -79 -77c-65 0 -80 21 -80 77z" />
    <glyph glyph-name="egrave" unicode="&#xe8;" horiz-adv-x="565" 
d="M245 170v-35c20 -2 40 -3 60 -3c62 0 125 10 188 30l24 -147c-71 -19 -145 -30 -222 -30c-190 0 -265 90 -265 265s75 265 265 265c183 0 245 -39 245 -180c0 -112 -63 -165 -295 -165zM245 327v-41h41c40 0 69 3 69 42v41h-41c-40 0 -69 -3 -69 -42zM353 539l-174 35
c-15 3 -19 6 -26 12l-45 39c-2 3 -4 6 -4 11s3 11 9 18l63 74c5 6 11 11 18 11c4 0 8 -2 11 -4l189 -139z" />
    <glyph glyph-name="eight" unicode="8" 
d="M300 640c126 0 244 -43 244 -181c0 -62 -27 -115 -67 -144v-7c50 -24 88 -78 88 -137c0 -142 -118 -186 -265 -186s-265 44 -265 186c0 59 38 113 88 137v7c-41 29 -67 82 -67 144c0 138 118 181 244 181zM350 201l-69 33c-7 3 -14 6 -20 6c-7 0 -11 -5 -11 -17v-87h41
c40 0 59 3 59 42v23zM250 423l65 -34c6 -3 11 -4 15 -4c12 0 20 8 20 18v81h-41c-40 0 -59 -3 -59 -42v-19z" />
    <glyph glyph-name="ellipsis" unicode="&#x2026;" horiz-adv-x="877" 
d="M30 99c0 76 20 107 109 107c88 0 108 -31 108 -107s-20 -105 -108 -105c-89 0 -109 29 -109 105zM330 99c0 76 20 107 109 107c88 0 108 -31 108 -107s-20 -105 -108 -105c-89 0 -109 29 -109 105zM630 99c0 76 20 107 109 107c88 0 108 -31 108 -107s-20 -105 -108 -105
c-89 0 -109 29 -109 105z" />
    <glyph glyph-name="emdash" unicode="&#x2014;" horiz-adv-x="854" 
d="M25 200v108c0 39 29 42 69 42h735v-108c0 -39 -29 -42 -69 -42h-735z" />
    <glyph glyph-name="endash" unicode="&#x2013;" horiz-adv-x="595" 
d="M25 200v108c0 39 29 42 69 42h476v-108c0 -39 -29 -42 -69 -42h-476z" />
    <glyph glyph-name="equal" unicode="=" 
d="M72 121v144h455v-144h-455zM72 359v144h455v-144h-455z" />
    <glyph glyph-name="eth" unicode="&#xf0;" horiz-adv-x="590" 
d="M495 634l15 -53c0 -21 -9 -26 -37 -35l-37 -12c70 -103 124 -215 124 -319c0 -137 -75 -230 -265 -230c-186 0 -265 93 -265 187c0 95 80 192 215 192h77l-62 112l-102 -33l-15 53c0 21 9 26 37 35l42 14l-59 107l171 13l54 -66zM245 184v-53h31c40 0 69 3 69 42v53h-31
c-40 0 -69 -3 -69 -42z" />
    <glyph glyph-name="exclam" unicode="!" horiz-adv-x="330" 
d="M250 170h-170l-30 428c0 15 7 27 37 27h156c30 0 37 -12 37 -27zM53 70c0 55 20 79 112 79c91 0 111 -24 111 -79s-20 -77 -111 -77c-92 0 -112 22 -112 77z" />
    <glyph glyph-name="exclamdown" unicode="&#xa1;" horiz-adv-x="330" 
d="M80 455h170l30 -428c0 -15 -7 -27 -37 -27h-156c-30 0 -37 12 -37 27zM53 555c0 55 20 77 112 77c91 0 111 -22 111 -77s-20 -79 -111 -79c-92 0 -112 24 -112 79z" />
    <glyph glyph-name="f" unicode="f" horiz-adv-x="358" 
d="M280 542v-42h60v-130h-60v-370h-200v370h-50v130h50l7 60c9 76 67 115 176 115c32 0 69 -4 110 -10l-11 -131z" />
    <glyph glyph-name="five" unicode="5" 
d="M42 11l28 165c62 -15 126 -23 191 -23c31 0 62 2 93 6v50l-75 8c-162 17 -213 45 -213 148c0 5 0 11 10 260h455l-15 -172l-237 14v-51l59 -7c185 -22 231 -93 231 -200c0 -217 -141 -224 -286 -224c-83 0 -164 8 -241 26z" />
    <glyph glyph-name="florin" unicode="&#x192;" horiz-adv-x="479" 
d="M329 428l-3 -59h113l-10 -107h-107l-11 -262c-5 -108 -55 -165 -155 -165h-145v130l52 10c26 5 47 12 48 40l10 247h-76v107h81l3 74c5 131 59 198 178 198c38 0 120 -7 172 -19l-30 -145h-47c-38 0 -71 -4 -73 -49z" />
    <glyph glyph-name="four" unicode="4" 
d="M324 0v100h-308v125l154 400h354v-353h65v-172h-65v-100h-200zM314 475l-89 -203h99v203h-10z" />
    <glyph glyph-name="fraction" unicode="&#x2044;" horiz-adv-x="503" 
d="M433 665l-269 -680c-9 -16 -15 -25 -43 -25h-51l269 680c9 16 15 25 43 25h51z" />
    <glyph glyph-name="g" unicode="g" horiz-adv-x="536" 
d="M23 -135l26 149c56 -19 133 -29 199 -29c17 0 34 0 48 2v35c-161 0 -164 27 -164 49l30 86c-91 16 -147 63 -147 177c0 123 72 181 251 181c31 0 60 -2 85 -6l87 67l105 -101l-57 -67c9 -24 13 -54 13 -90c0 -102 -42 -153 -180 -164l-4 -24c135 -8 197 -30 197 -130
c0 -151 -134 -165 -270 -165c-73 0 -149 12 -219 30zM203 340v-65h31c40 0 69 3 69 42v65h-31c-40 0 -69 -3 -69 -42z" />
    <glyph glyph-name="germandbls" unicode="&#xdf;" horiz-adv-x="672" 
d="M20 370v130h50l7 60c12 105 117 115 253 115c88 0 222 -20 222 -160c0 -35 -20 -115 -82 -201c130 0 172 -66 172 -163c0 -135 -97 -166 -198 -166c-52 0 -116 5 -138 14l20 142c28 -7 57 -11 86 -11c19 0 37 1 38 4v32c-89 0 -138 26 -138 104c0 26 6 59 18 99
c11 37 25 76 25 105c0 27 -12 45 -50 45c-10 0 -21 -1 -35 -4v-515h-200v370h-50z" />
    <glyph glyph-name="grave" unicode="`" horiz-adv-x="429" 
d="M288 539l-174 35c-15 3 -19 6 -26 12l-45 39c-2 3 -4 6 -4 11s3 11 9 18l63 74c5 6 11 11 18 11c4 0 8 -2 11 -4l189 -139z" />
    <glyph glyph-name="greater" unicode="&#x3e;" 
d="M174 37l-67 134l247 137v7l-247 138l67 134l325 -184v-182z" />
    <glyph glyph-name="guillemotleft" unicode="&#xab;" horiz-adv-x="575" 
d="M25 300l194 175l81 -51l-100 -174l100 -174l-81 -51l-194 175v100zM275 300l194 175l81 -51l-100 -174l100 -174l-81 -51l-194 175v100z" />
    <glyph glyph-name="guillemotright" unicode="&#xbb;" horiz-adv-x="575" 
d="M356 475l194 -175v-100l-194 -175l-81 51l100 174l-100 174zM106 475l194 -175v-100l-194 -175l-81 51l100 174l-100 174z" />
    <glyph glyph-name="guilsinglleft" unicode="&#x2039;" horiz-adv-x="325" 
d="M25 300l194 175l81 -51l-100 -174l100 -174l-81 -51l-194 175v100z" />
    <glyph glyph-name="guilsinglright" unicode="&#x203a;" horiz-adv-x="325" 
d="M106 475l194 -175v-100l-194 -175l-81 51l100 174l-100 174z" />
    <glyph glyph-name="h" unicode="h" horiz-adv-x="595" 
d="M250 308v-308h-200v650l200 15v-183c41 21 93 33 150 33c94 0 150 -43 150 -115v-400h-200v350h-31c-40 0 -69 -3 -69 -42z" />
    <glyph glyph-name="hungarumlaut" unicode="&#x2dd;" horiz-adv-x="599" 
d="M88 530l-40 59l140 140c6 7 11 11 16 12c5 0 10 -4 18 -12l63 -74c5 -6 7 -13 7 -18c0 -6 -4 -12 -9 -17l-41 -38c-4 -4 -13 -10 -33 -16zM351 530l-40 59l140 140c6 7 11 11 16 12c5 0 10 -4 18 -12l63 -74c5 -6 7 -13 7 -18c0 -6 -4 -12 -9 -17l-41 -38
c-4 -4 -13 -10 -33 -16z" />
    <glyph glyph-name="hyphen" unicode="-" horiz-adv-x="350" 
d="M25 200v108c0 39 29 42 69 42h231v-108c0 -39 -29 -42 -69 -42h-231z" />
    <glyph glyph-name="i" unicode="i" horiz-adv-x="300" 
d="M50 0v475l200 25v-500h-200zM39 594c0 58 20 81 112 81c91 0 111 -23 111 -81s-20 -79 -111 -79c-92 0 -112 21 -112 79z" />
    <glyph glyph-name="iacute" unicode="&#xed;" horiz-adv-x="300" 
d="M50 0v475l200 25v-500h-200zM252 574l-174 -35l-41 57l189 139c3 2 7 4 11 4c7 0 13 -5 18 -11l63 -74c6 -7 9 -13 9 -18s-2 -8 -4 -11l-45 -39c-7 -6 -11 -9 -26 -12z" />
    <glyph glyph-name="icircumflex" unicode="&#xee;" horiz-adv-x="300" 
d="M50 0v475l200 25v-500h-200zM123 740h48c7 0 11 -4 16 -9l113 -145l-60 -49l-93 63l-93 -63l-60 49l113 145c5 5 9 9 16 9z" />
    <glyph glyph-name="idieresis" unicode="&#xef;" horiz-adv-x="300" 
d="M50 0v475l200 25v-500h-200zM-42 629c0 56 15 79 80 79c64 0 79 -23 79 -79s-15 -77 -79 -77c-65 0 -80 21 -80 77zM177 629c0 56 15 79 80 79c64 0 79 -23 79 -79s-15 -77 -79 -77c-65 0 -80 21 -80 77z" />
    <glyph glyph-name="igrave" unicode="&#xec;" horiz-adv-x="300" 
d="M50 0v475l200 25v-500h-200zM221 539l-174 35c-15 3 -19 6 -26 12l-45 39c-2 3 -4 6 -4 11s3 11 9 18l63 74c5 6 11 11 18 11c4 0 8 -2 11 -4l189 -139z" />
    <glyph glyph-name="j" unicode="j" horiz-adv-x="300" 
d="M-50 -165v130l52 10c26 5 48 12 48 40v460l200 25v-500c0 -108 -55 -165 -155 -165h-145zM39 594c0 58 20 81 112 81c91 0 111 -23 111 -81s-20 -79 -111 -79c-92 0 -112 21 -112 79z" />
    <glyph glyph-name="k" unicode="k" horiz-adv-x="560" 
d="M334 0l-77 198h-7v-198h-200v650l200 15v-330h7l72 165h216l-116 -238l121 -262h-216z" />
    <glyph glyph-name="l" unicode="l" horiz-adv-x="309" 
d="M250 665v-522c16 -3 33 -6 49 -7l-9 -147c-130 0 -240 5 -240 105v556z" />
    <glyph glyph-name="less" unicode="&#x3c;" 
d="M432 587l67 -134l-247 -138v-7l247 -137l-67 -134l-325 184v182z" />
    <glyph glyph-name="logicalnot" unicode="&#xac;" 
d="M72 240v144h455v-284h-134v140h-321z" />
    <glyph glyph-name="lslash" unicode="&#x142;" horiz-adv-x="309" 
d="M0 220c-32 98 -33 103 -33 108c0 21 22 30 50 39l302 99c31 -98 32 -103 32 -107c0 -23 -21 -32 -50 -41zM250 665v-522c16 -3 33 -6 49 -7l-9 -147c-130 0 -240 5 -240 105v556z" />
    <glyph glyph-name="m" unicode="m" horiz-adv-x="854" 
d="M330 350h-14c-37 0 -66 -2 -66 -46v-304h-200v500h100l45 -46c37 37 95 61 165 61c62 0 110 -15 138 -41c37 25 85 41 142 41c107 0 170 -43 170 -115v-400h-200v350h-14c-35 0 -64 -2 -66 -40v-310h-200v350z" />
    <glyph glyph-name="macron" unicode="&#xaf;" horiz-adv-x="399" 
d="M349 568h-246c-48 0 -53 15 -53 64v63h247c48 0 52 -13 52 -63v-64z" />
    <glyph glyph-name="minus" unicode="&#x2212;" 
d="M72 240v144h455v-144h-455z" />
    <glyph glyph-name="mu" unicode="&#xb5;" horiz-adv-x="590" 
d="M240 500v-369h31c40 0 69 3 69 42v327l200 15v-515h-100l-43 43c-25 -29 -64 -43 -123 -43h-72l-32 -165h-130v665h200z" />
    <glyph glyph-name="multiply" unicode="&#xd7;" 
d="M164 75l-102 102l135 135l-135 135l102 102l135 -135l135 135l102 -102l-135 -135l135 -135l-102 -102l-135 135z" />
    <glyph glyph-name="n" unicode="n" horiz-adv-x="595" 
d="M150 500l50 -50c50 35 117 65 200 65c94 0 150 -43 150 -115v-400h-200v350h-31c-38 0 -69 -4 -69 -38v-312h-200v500h100z" />
    <glyph glyph-name="nine" unicode="9" 
d="M249 447v-71h41c40 0 59 3 59 42v71h-41c-40 0 -59 -3 -59 -42zM349 217l-50 1c-145 3 -265 23 -265 207s120 215 265 215c210 0 265 -111 265 -327c0 -217 -55 -328 -265 -328c-83 0 -169 8 -246 26l28 165c62 -15 125 -23 175 -23c31 0 62 2 93 6v58z" />
    <glyph glyph-name="ntilde" unicode="&#xf1;" horiz-adv-x="595" 
d="M150 500l50 -50c50 35 117 65 200 65c94 0 150 -43 150 -115v-400h-200v350h-31c-38 0 -69 -4 -69 -38v-312h-200v500h100zM440 716l50 -81c-127 -85 -133 -92 -166 -92c-34 0 -56 22 -88 45l-82 -40l-50 81c127 85 133 92 166 92c34 0 56 -22 88 -45z" />
    <glyph glyph-name="numbersign" unicode="#" horiz-adv-x="746" 
d="M425 665l-76 -191h180l66 166c9 16 15 25 43 25h51l-76 -191h133l-18 -48c-10 -26 -21 -28 -39 -31h-107l-66 -167h133l-18 -47c-11 -26 -21 -29 -39 -31h-107l-65 -165c-9 -16 -15 -25 -43 -25h-51l75 190h-180l-65 -165c-9 -16 -15 -25 -43 -25h-51l75 190h-137l19 47
c10 26 21 29 39 31h110l66 167h-137l19 48c10 26 21 28 39 31h110l66 166c9 16 15 25 43 25h51zM318 395l-66 -167h180l66 167h-180z" />
    <glyph glyph-name="o" unicode="o" horiz-adv-x="590" 
d="M30 250c0 175 75 265 265 265s265 -90 265 -265s-75 -265 -265 -265s-265 90 -265 265zM245 327v-196h31c40 0 69 3 69 42v196h-31c-40 0 -69 -3 -69 -42z" />
    <glyph glyph-name="oacute" unicode="&#xf3;" horiz-adv-x="590" 
d="M30 250c0 175 75 265 265 265s265 -90 265 -265s-75 -265 -265 -265s-265 90 -265 265zM245 327v-196h31c40 0 69 3 69 42v196h-31c-40 0 -69 -3 -69 -42zM400 574l-174 -35l-41 57l189 139c3 2 7 4 11 4c7 0 13 -5 18 -11l63 -74c6 -7 9 -13 9 -18s-2 -8 -4 -11l-45 -39
c-7 -6 -11 -9 -26 -12z" />
    <glyph glyph-name="ocircumflex" unicode="&#xf4;" horiz-adv-x="590" 
d="M30 250c0 175 75 265 265 265s265 -90 265 -265s-75 -265 -265 -265s-265 90 -265 265zM245 327v-196h31c40 0 69 3 69 42v196h-31c-40 0 -69 -3 -69 -42zM270 740h48c7 0 11 -4 16 -9l113 -145l-60 -49l-93 63l-93 -63l-60 49l113 145c5 5 9 9 16 9z" />
    <glyph glyph-name="odieresis" unicode="&#xf6;" horiz-adv-x="590" 
d="M30 250c0 175 75 265 265 265s265 -90 265 -265s-75 -265 -265 -265s-265 90 -265 265zM245 327v-196h31c40 0 69 3 69 42v196h-31c-40 0 -69 -3 -69 -42zM106 629c0 56 15 79 80 79c64 0 79 -23 79 -79s-15 -77 -79 -77c-65 0 -80 21 -80 77zM325 629c0 56 15 79 80 79
c64 0 79 -23 79 -79s-15 -77 -79 -77c-65 0 -80 21 -80 77z" />
    <glyph glyph-name="oe" unicode="&#x153;" horiz-adv-x="887" 
d="M30 250c0 175 75 265 265 265s265 -90 265 -265s-75 -265 -265 -265s-265 90 -265 265zM245 327v-196h31c40 0 69 3 69 42v196h-31c-40 0 -69 -3 -69 -42zM562 170v-35c20 -2 40 -3 60 -3c62 0 125 10 188 30l24 -147c-71 -19 -145 -30 -222 -30c-190 0 -265 90 -265 265
s75 265 265 265c183 0 245 -39 245 -180c0 -112 -63 -165 -295 -165zM562 327v-41h41c40 0 69 3 69 42v41h-41c-40 0 -69 -3 -69 -42z" />
    <glyph glyph-name="ogonek" unicode="&#x2db;" horiz-adv-x="500" 
d="M300 21l19 -21l-54 -26c0 -28 6 -32 33 -32h49l11 -88c-41 -13 -76 -19 -104 -19c-78 0 -112 40 -112 84c0 41 26 78 78 102h80z" />
    <glyph glyph-name="ograve" unicode="&#xf2;" horiz-adv-x="590" 
d="M30 250c0 175 75 265 265 265s265 -90 265 -265s-75 -265 -265 -265s-265 90 -265 265zM245 327v-196h31c40 0 69 3 69 42v196h-31c-40 0 -69 -3 -69 -42zM368 539l-174 35c-15 3 -19 6 -26 12l-45 39c-2 3 -4 6 -4 11s3 11 9 18l63 74c5 6 11 11 18 11c4 0 8 -2 11 -4
l189 -139z" />
    <glyph glyph-name="one" unicode="1" 
d="M566 0h-500v160h178v265l-178 -12v160l230 52h158v-465h112v-160z" />
    <glyph glyph-name="onehalf" unicode="&#xbd;" horiz-adv-x="971" 
d="M618 270l-19 111c49 12 108 17 160 17c91 0 162 -11 162 -128c0 -82 -32 -97 -175 -145v-15h169v-110h-322v82c0 96 57 110 146 151l39 18v32c-22 2 -30 2 -43 2c-36 0 -76 -6 -117 -15zM373 227h-314v110h95v143l-95 -5v109l131 32h104v-279h79v-110zM659 665l-269 -680
c-9 -16 -15 -25 -43 -25h-51l269 680c9 16 15 25 43 25h51z" />
    <glyph glyph-name="onequarter" unicode="&#xbc;" horiz-adv-x="971" 
d="M762 0v60h-184v84l94 245h224v-217h39v-112h-39v-60h-134zM762 172v123h-8l-45 -123h53zM373 227h-314v110h95v143l-95 -5v109l131 32h104v-279h79v-110zM689 665l-269 -680c-9 -16 -15 -25 -43 -25h-51l269 680c9 16 15 25 43 25h51z" />
    <glyph glyph-name="onesuperior" unicode="&#xb9;" horiz-adv-x="400" 
d="M367 343h-314v110h95v143l-95 -5v109l131 32h104v-279h79v-110z" />
    <glyph glyph-name="ordfeminine" unicode="&#xaa;" horiz-adv-x="458" 
d="M231 770c105 0 193 -26 193 -135v-279h-87l-42 42c-33 -34 -91 -54 -146 -54c-61 0 -137 19 -137 131c0 110 93 131 219 131h24v36c-20 3 -40 4 -60 4c-45 0 -88 -6 -133 -18l-19 116c59 19 126 26 188 26zM191 493v-31h16c27 0 45 2 48 22v34h-18c-27 0 -46 -1 -46 -25z
M35 191v80c0 29 19 29 48 29h340v-78c0 -29 -19 -31 -48 -31h-340z" />
    <glyph glyph-name="ordmasculine" unicode="&#xba;" horiz-adv-x="472" 
d="M20 557c0 141 60 213 213 213s213 -72 213 -213s-60 -213 -213 -213s-213 72 -213 213zM201 618v-146h17c27 0 47 2 47 25v146h-18c-27 0 -46 -2 -46 -25zM35 191v80c0 29 19 29 48 29h340v-78c0 -29 -19 -31 -48 -31h-340z" />
    <glyph glyph-name="oslash" unicode="&#xf8;" horiz-adv-x="590" 
d="M240 100h-61l172 300h61zM151 85h100l-94 -164c-9 -16 -15 -25 -43 -25h-71zM444 422h-100l88 154c9 16 15 25 43 25h71zM30 250c0 175 75 265 265 265s265 -90 265 -265s-75 -265 -265 -265s-265 90 -265 265zM245 327v-196h31c40 0 69 3 69 42v196h-31
c-40 0 -69 -3 -69 -42z" />
    <glyph glyph-name="otilde" unicode="&#xf5;" horiz-adv-x="590" 
d="M30 250c0 175 75 265 265 265s265 -90 265 -265s-75 -265 -265 -265s-265 90 -265 265zM245 327v-196h31c40 0 69 3 69 42v196h-31c-40 0 -69 -3 -69 -42zM438 716l50 -81c-127 -85 -133 -92 -166 -92c-34 0 -56 22 -88 45l-82 -40l-50 81c127 85 133 92 166 92
c34 0 56 -22 88 -45z" />
    <glyph glyph-name="p" unicode="p" horiz-adv-x="595" 
d="M50 500h100l37 -50c29 43 79 65 163 65c171 0 215 -140 215 -265c0 -103 -29 -250 -200 -250h-115v-150l-200 -15v665zM250 332v-201h31c40 0 69 3 69 42v196h-31c-38 0 -67 -3 -69 -37z" />
    <glyph glyph-name="paragraph" unicode="&#xb6;" horiz-adv-x="604" 
d="M70 0v50l115 36v132c-131 18 -155 117 -155 200c0 112 44 207 215 207h319v-160h-50v-465h-195v465h-30v-465h-219z" />
    <glyph glyph-name="parenleft" unicode="(" horiz-adv-x="314" 
d="M274 620l10 -147c-35 -15 -84 -42 -84 -231c0 -195 49 -216 84 -231l-10 -147c-234 30 -254 262 -254 378s20 348 254 378z" />
    <glyph glyph-name="parenright" unicode=")" horiz-adv-x="314" 
d="M30 463l10 147c234 -30 254 -262 254 -378s-20 -348 -254 -378l-10 147c35 15 84 36 84 231c0 189 -49 216 -84 231z" />
    <glyph glyph-name="percent" unicode="%" horiz-adv-x="862" 
d="M659 625l-345 -600c-13 -23 -17 -25 -49 -25h-65l345 600c13 23 17 25 49 25h65zM472 170c0 122 52 185 185 185s185 -63 185 -185s-52 -185 -185 -185s-185 63 -185 185zM630 209v-107h22c28 0 32 2 32 29v107h-22c-28 0 -32 -2 -32 -29zM20 455c0 122 52 185 185 185
s185 -63 185 -185s-52 -185 -185 -185s-185 63 -185 185zM178 494v-107h22c28 0 32 2 32 29v107h-22c-28 0 -32 -2 -32 -29z" />
    <glyph glyph-name="period" unicode="." horiz-adv-x="267" 
d="M30 99c0 76 20 107 109 107c88 0 108 -31 108 -107s-20 -105 -108 -105c-89 0 -109 29 -109 105z" />
    <glyph glyph-name="periodcentered" unicode="&#xb7;" horiz-adv-x="277" 
d="M30 249c0 76 20 107 109 107c88 0 108 -31 108 -107s-20 -105 -108 -105c-89 0 -109 29 -109 105z" />
    <glyph glyph-name="perthousand" unicode="&#x2030;" horiz-adv-x="1145" 
d="M472 170c0 122 52 185 185 185c66 0 112 -15 141 -46c30 31 76 46 142 46c133 0 185 -63 185 -185s-52 -185 -185 -185c-66 0 -112 15 -142 46c-29 -31 -75 -46 -141 -46c-133 0 -185 63 -185 185zM20 455c0 122 52 185 185 185s185 -63 185 -185s-52 -185 -185 -185
s-185 63 -185 185zM659 625l-345 -600c-13 -23 -17 -25 -49 -25h-65l345 600c13 23 17 25 49 25h65zM630 209v-107h22c28 0 32 2 32 29v107h-22c-28 0 -32 -2 -32 -29zM913 209v-107h22c28 0 32 2 32 29v107h-22c-28 0 -32 -2 -32 -29zM178 494v-107h22c28 0 32 2 32 29v107
h-22c-28 0 -32 -2 -32 -29z" />
    <glyph glyph-name="plus" unicode="+" 
d="M72 240v144h155v155h144v-155h156v-144h-156v-156h-144v156h-155z" />
    <glyph glyph-name="plusminus" unicode="&#xb1;" 
d="M72 341v144h155v155h144v-155h156v-144h-156v-156h-144v156h-155zM72 0v144h455v-144h-455z" />
    <glyph glyph-name="q" unicode="q" horiz-adv-x="595" 
d="M445 500h100v-651l-200 -14v165c-26 -10 -59 -15 -100 -15c-171 0 -215 144 -215 265c0 150 64 265 235 265c59 0 108 -14 152 -43zM245 327v-196h31c40 0 69 3 69 42v196h-31c-40 0 -69 -3 -69 -42z" />
    <glyph glyph-name="question" unicode="?" horiz-adv-x="528" 
d="M318 302l-17 -127h-170l-15 188c0 23 8 33 65 53l107 37v34c-13 1 -29 2 -45 2c-67 0 -153 -11 -179 -20l-24 143c66 17 139 28 208 28c130 0 240 -13 240 -157c0 -109 -58 -142 -170 -181zM105 70c0 55 20 79 112 79c91 0 111 -24 111 -79s-20 -77 -111 -77
c-92 0 -112 22 -112 77z" />
    <glyph glyph-name="questiondown" unicode="&#xbf;" horiz-adv-x="528" 
d="M210 323l17 127h170l15 -188c0 -23 -8 -33 -65 -53l-107 -37v-34c13 -1 29 -2 45 -2c67 0 153 11 179 20l24 -143c-66 -17 -139 -28 -208 -28c-130 0 -240 13 -240 157c0 109 58 142 170 181zM423 555c0 -55 -20 -79 -112 -79c-91 0 -111 24 -111 79s20 77 111 77
c92 0 112 -22 112 -77z" />
    <glyph glyph-name="quotedbl" unicode="&#x22;" horiz-adv-x="500" 
d="M175 300h-100c-45 235 -50 253 -50 265v58c0 15 8 27 37 27h126c29 0 37 -12 37 -27v-58c0 -12 -5 -30 -50 -265zM425 300h-100c-45 235 -50 253 -50 265v58c0 15 8 27 37 27h126c29 0 37 -12 37 -27v-58c0 -12 -5 -30 -50 -265z" />
    <glyph glyph-name="quotedblbase" unicode="&#x201e;" horiz-adv-x="525" 
d="M41 101c0 76 20 107 109 107c88 0 108 -31 108 -107v-10v-2c-3 -51 -19 -74 -33 -102l-68 -136l-89 29l33 144c-48 8 -60 32 -60 77zM291 101c0 76 20 107 109 107c88 0 108 -31 108 -107v-10c-2 -53 -19 -76 -33 -104l-68 -136l-89 29l33 144c-48 8 -60 32 -60 77z" />
    <glyph glyph-name="quotedblleft" unicode="&#x201c;" horiz-adv-x="525" 
d="M484 420c0 -76 -20 -107 -109 -107c-88 0 -108 31 -108 107v8v4c2 51 19 74 33 102l68 136l89 -29l-33 -145c47 -8 60 -31 60 -76zM234 420c0 -76 -20 -107 -109 -107c-88 0 -108 31 -108 107v12c2 51 19 74 33 102l68 136l89 -29l-33 -145c47 -8 60 -31 60 -76z" />
    <glyph glyph-name="quotedblright" unicode="&#x201d;" horiz-adv-x="525" 
d="M41 551c0 76 20 107 109 107c88 0 108 -31 108 -107v-10v-2c-3 -51 -19 -74 -33 -102l-68 -136l-89 29l33 144c-48 8 -60 32 -60 77zM291 551c0 76 20 107 109 107c88 0 108 -31 108 -107v-10c-2 -53 -19 -76 -33 -104l-68 -136l-89 29l33 144c-48 8 -60 32 -60 77z" />
    <glyph glyph-name="quoteleft" unicode="&#x2018;" horiz-adv-x="275" 
d="M234 420c0 -76 -20 -107 -109 -107c-88 0 -108 31 -108 107v12c2 51 19 74 33 102l68 136l89 -29l-33 -145c47 -8 60 -31 60 -76z" />
    <glyph glyph-name="quoteright" unicode="&#x2019;" horiz-adv-x="275" 
d="M41 551c0 76 20 107 109 107c88 0 108 -31 108 -107v-9v-3c-3 -51 -19 -74 -33 -102l-68 -136l-89 29l33 144c-48 8 -60 32 -60 77z" />
    <glyph glyph-name="quotesinglbase" unicode="&#x201a;" horiz-adv-x="275" 
d="M41 101c0 76 20 107 109 107c88 0 108 -31 108 -107v-9v-3c-3 -51 -19 -74 -33 -102l-68 -136l-89 29l33 144c-48 8 -60 32 -60 77z" />
    <glyph glyph-name="quotesingle" unicode="'" horiz-adv-x="250" 
d="M175 300h-100c-45 235 -50 253 -50 265v58c0 15 8 27 37 27h126c29 0 37 -12 37 -27v-58c0 -12 -5 -30 -50 -265z" />
    <glyph glyph-name="r" unicode="r" horiz-adv-x="375" 
d="M50 500h100l55 -56c37 34 85 59 148 71l12 -189c-21 -1 -94 -14 -115 -40v-286h-200v500z" />
    <glyph glyph-name="registered" unicode="&#xae;" horiz-adv-x="563" 
d="M30 431c0 165 71 251 252 251c180 0 251 -86 251 -251c0 -166 -71 -252 -251 -252c-181 0 -252 86 -252 252zM80 431c0 -156 57 -206 202 -206c144 0 201 50 201 206c0 155 -57 205 -201 205c-145 0 -202 -50 -202 -205zM425 281h-112l-39 87h-12v-87h-102v300h151
c84 0 105 -49 105 -106c0 -35 -8 -75 -43 -95zM262 498v-50h17c16 0 28 1 28 15v20c0 14 -12 15 -28 15h-17z" />
    <glyph glyph-name="ring" unicode="&#x2da;" horiz-adv-x="265" 
d="M17 643c0 76 32 115 116 115c83 0 115 -39 115 -115c0 -77 -32 -116 -115 -116c-84 0 -116 39 -116 116zM90 664v-68h42c25 0 42 1 42 26v67h-39c-27 0 -45 -1 -45 -25z" />
    <glyph glyph-name="s" unicode="s" horiz-adv-x="526" 
d="M33 341c0 144 104 174 228 174c73 0 152 -9 219 -31l-23 -136c-53 15 -105 22 -156 22c-23 0 -46 -2 -68 -4v-32c222 0 273 -71 273 -168c0 -175 -127 -181 -257 -181c-74 0 -155 9 -224 29l25 142c58 -18 119 -26 182 -26c27 0 54 1 82 4v32c-222 0 -281 60 -281 175z
" />
    <glyph glyph-name="scaron" unicode="&#x161;" horiz-adv-x="526" 
d="M33 341c0 144 104 174 228 174c73 0 152 -9 219 -31l-23 -136c-53 15 -105 22 -156 22c-23 0 -46 -2 -68 -4v-32c222 0 273 -71 273 -168c0 -175 -127 -181 -257 -181c-74 0 -155 9 -224 29l25 142c58 -18 119 -26 182 -26c27 0 54 1 82 4v32c-222 0 -281 60 -281 175z
M289 537h-48c-7 0 -11 4 -16 9l-113 145l60 49l93 -63l93 63l60 -49l-113 -145c-5 -5 -9 -9 -16 -9z" />
    <glyph glyph-name="section" unicode="&#xa7;" horiz-adv-x="588" 
d="M280 216h80v26c0 30 -3 35 -34 35h-80v-25c0 -30 3 -36 34 -36zM50 -91l22 122h268v34c-222 0 -281 55 -281 166c0 47 9 85 23 111c-18 26 -23 56 -23 92c0 176 111 184 243 184c69 0 143 -7 212 -25l-22 -127h-227v-34c222 0 273 -67 273 -166c0 -47 -10 -85 -25 -111
c19 -27 25 -57 25 -92c0 -178 -128 -184 -260 -184c-74 0 -156 9 -228 30z" />
    <glyph glyph-name="semicolon" unicode=";" horiz-adv-x="277" 
d="M30 99c0 76 20 107 109 107c88 0 108 -31 108 -107v-9v-1v-2c-3 -51 -19 -74 -33 -102l-68 -136l-89 29l33 144c-48 8 -60 32 -60 77zM30 399c0 76 20 107 109 107c88 0 108 -31 108 -107s-20 -105 -108 -105c-89 0 -109 29 -109 105z" />
    <glyph glyph-name="seven" unicode="7" 
d="M554 500l-193 -500h-226l179 451l-240 -3l-15 177h495v-125z" />
    <glyph glyph-name="six" unicode="6" 
d="M350 178v79h-41c-40 0 -59 -3 -59 -42v-79h41c40 0 59 3 59 42zM565 200c0 -184 -120 -215 -265 -215c-210 0 -265 111 -265 327c0 217 55 328 314 328c51 0 153 -14 193 -26l-30 -153c-52 9 -114 14 -149 14c-37 0 -94 -4 -113 -9v-51h50c145 0 265 -31 265 -215z" />
    <glyph glyph-name="slash" unicode="/" horiz-adv-x="503" 
d="M503 665l-389 -680c-9 -16 -15 -25 -43 -25h-71l389 680c9 16 15 25 43 25h71z" />
    <glyph glyph-name="Acircumflex" unicode="&#xc2;" horiz-adv-x="609" 
d="M199 0h-211l162 625h309l162 -625h-211l-23 99h-165zM299 433l-41 -175h92l-40 175h-11zM280 864h48c7 0 11 -4 16 -9l113 -145l-60 -49l-93 63l-93 -63l-60 49l113 145c5 5 9 9 16 9z" />
    <glyph glyph-name="sterling" unicode="&#xa3;" horiz-adv-x="586" 
d="M460 262h-152l-9 -102h222l25 -160h-506v100l50 35l14 127h-64v107h76l8 74c14 130 90 198 214 198c85 0 142 -9 187 -19l-30 -145h-98c-38 0 -69 -4 -73 -49l-6 -59h152z" />
    <glyph glyph-name="t" unicode="t" horiz-adv-x="364" 
d="M20 371v129h50v80l200 50v-130h69v-129h-69v-228c16 -3 43 -6 59 -7l-9 -147c-140 0 -250 5 -250 105v277h-50z" />
    <glyph glyph-name="thorn" unicode="&#xfe;" horiz-adv-x="420" 
d="M-47 650l200 15v-166c26 11 59 16 100 16c171 0 215 -140 215 -265c0 -195 -96 -265 -256 -265c-20 0 -43 1 -59 2v-137l-200 -15v815zM153 332v-201h31c40 0 69 3 69 42v196h-31c-38 0 -67 -3 -69 -37z" />
    <glyph glyph-name="three" unicode="3" 
d="M349 405v65c-24 4 -63 5 -87 5c-73 0 -115 -8 -177 -21l-26 148c77 24 153 38 236 38c145 0 253 -16 253 -159c0 -70 -30 -116 -83 -144v-5c70 -29 99 -81 99 -149c0 -183 -141 -198 -286 -198c-83 0 -154 8 -231 26l28 165c62 -15 116 -23 181 -23c31 0 62 2 93 6v64
l-172 17v145z" />
    <glyph glyph-name="threequarters" unicode="&#xbe;" horiz-adv-x="971" 
d="M762 0v60h-184v84l94 245h224v-217h39v-112h-39v-60h-134zM762 172v123h-8l-45 -123h53zM235 478v32c-14 1 -23 2 -37 2c-38 0 -81 -5 -120 -14l-19 110c49 12 98 17 151 17c91 0 159 -11 159 -102c0 -41 -13 -68 -42 -89c37 -19 51 -50 51 -90
c0 -116 -87 -126 -178 -126c-53 0 -98 5 -147 17l19 114c42 -10 78 -16 115 -16c16 0 31 0 48 2v31l-103 11v89zM670 665l-269 -680c-9 -16 -15 -25 -43 -25h-51l269 680c9 16 15 25 43 25h51z" />
    <glyph glyph-name="threesuperior" unicode="&#xb3;" horiz-adv-x="400" 
d="M219 594v32c-14 1 -23 2 -37 2c-38 0 -81 -5 -120 -14l-19 110c49 12 98 17 151 17c91 0 159 -11 159 -102c0 -41 -13 -68 -42 -89c37 -19 51 -50 51 -90c0 -116 -87 -126 -178 -126c-53 0 -98 5 -147 17l19 114c42 -10 78 -16 115 -16c16 0 31 0 48 2v31l-103 11v89z
" />
    <glyph glyph-name="tilde" unicode="&#x2dc;" horiz-adv-x="458" 
d="M372 716l50 -81c-127 -85 -133 -92 -166 -92c-34 0 -56 22 -88 45l-82 -40l-50 81c127 85 133 92 166 92c34 0 56 -22 88 -45z" />
    <glyph glyph-name="trademark" unicode="&#x2122;" horiz-adv-x="807" 
d="M461 343h-138l25 389h175l31 -148h7l31 148h175l25 -389h-138l-8 148h-6l-35 -148h-95l-36 148h-6zM326 617h-86v-274h-140v274h-85v115h311v-115z" />
    <glyph glyph-name="two" unicode="2" 
d="M75 453l-26 149c76 23 168 38 251 38c145 0 258 -17 258 -201c0 -130 -56 -171 -292 -251v-28h282v-160h-513v125c0 175 123 203 308 291v54c-27 3 -55 5 -83 5c-63 0 -126 -8 -185 -22z" />
    <glyph glyph-name="twosuperior" unicode="&#xb2;" horiz-adv-x="400" 
d="M61 613l-19 111c49 12 108 17 160 17c91 0 162 -11 162 -128c0 -82 -32 -97 -175 -145v-15h169v-110h-322v82c0 96 57 110 146 151l39 18v32c-22 2 -30 2 -43 2c-36 0 -76 -6 -117 -15z" />
    <glyph glyph-name="u" unicode="u" horiz-adv-x="590" 
d="M240 500v-369h31c40 0 69 3 69 42v327h200v-500h-100l-58 57c-40 -48 -99 -72 -171 -72c-117 0 -171 44 -171 165v350h200z" />
    <glyph glyph-name="uacute" unicode="&#xfa;" horiz-adv-x="590" 
d="M240 500v-369h31c40 0 69 3 69 42v327h200v-500h-100l-58 57c-40 -48 -99 -72 -171 -72c-117 0 -171 44 -171 165v350h200zM400 574l-174 -35l-41 57l189 139c3 2 7 4 11 4c7 0 13 -5 18 -11l63 -74c6 -7 9 -13 9 -18s-2 -8 -4 -11l-45 -39c-7 -6 -11 -9 -26 -12z" />
    <glyph glyph-name="ucircumflex" unicode="&#xfb;" horiz-adv-x="590" 
d="M240 500v-369h31c40 0 69 3 69 42v327h200v-500h-100l-58 57c-40 -48 -99 -72 -171 -72c-117 0 -171 44 -171 165v350h200zM270 740h48c7 0 11 -4 16 -9l113 -145l-60 -49l-93 63l-93 -63l-60 49l113 145c5 5 9 9 16 9z" />
    <glyph glyph-name="udieresis" unicode="&#xfc;" horiz-adv-x="590" 
d="M240 500v-369h31c40 0 69 3 69 42v327h200v-500h-100l-58 57c-40 -48 -99 -72 -171 -72c-117 0 -171 44 -171 165v350h200zM106 629c0 56 15 79 80 79c64 0 79 -23 79 -79s-15 -77 -79 -77c-65 0 -80 21 -80 77zM325 629c0 56 15 79 80 79c64 0 79 -23 79 -79
s-15 -77 -79 -77c-65 0 -80 21 -80 77z" />
    <glyph glyph-name="ugrave" unicode="&#xf9;" horiz-adv-x="590" 
d="M240 500v-369h31c40 0 69 3 69 42v327h200v-500h-100l-58 57c-40 -48 -99 -72 -171 -72c-117 0 -171 44 -171 165v350h200zM368 539l-174 35c-15 3 -19 6 -26 12l-45 39c-2 3 -4 6 -4 11s3 11 9 18l63 74c5 6 11 11 18 11c4 0 8 -2 11 -4l189 -139z" />
    <glyph glyph-name="underscore" unicode="_" horiz-adv-x="595" 
d="M25 -135v108c0 39 29 42 69 42h476v-108c0 -39 -29 -42 -69 -42h-476z" />
    <glyph glyph-name="v" unicode="v" horiz-adv-x="520" 
d="M125 0l-125 500h200l55 -325h10l55 325h200l-125 -500h-270z" />
    <glyph glyph-name="w" unicode="w" horiz-adv-x="800" 
d="M114 0l-100 500h196l41 -297h11l63 297h150l56 -297h11l48 297h196l-100 -500h-246l-39 215h-8l-43 -215h-236z" />
    <glyph glyph-name="x" unicode="x" horiz-adv-x="540" 
d="M213 500l56 -124h6l52 124h208l-125 -256l130 -244h-208l-62 135h-5l-57 -135h-208l130 258l-125 242h208z" />
    <glyph glyph-name="y" unicode="y" horiz-adv-x="520" 
d="M112 52l-112 448h200l55 -325h10l55 325h200l-125 -500c-39 -137 -91 -165 -191 -165h-194v130l94 18c44 9 92 18 114 63l-1 6h-105z" />
    <glyph glyph-name="yacute" unicode="&#xfd;" horiz-adv-x="520" 
d="M112 52l-112 448h200l55 -325h10l55 325h200l-125 -500c-39 -137 -91 -165 -191 -165h-194v130l94 18c44 9 92 18 114 63l-1 6h-105zM331 574l-174 -35l-41 57l189 139c3 2 7 4 11 4c7 0 13 -5 18 -11l63 -74c6 -7 9 -13 9 -18s-2 -8 -4 -11l-45 -39
c-7 -6 -11 -9 -26 -12z" />
    <glyph glyph-name="ydieresis" unicode="&#xff;" horiz-adv-x="520" 
d="M112 52l-112 448h200l55 -325h10l55 325h200l-125 -500c-39 -137 -91 -165 -191 -165h-194v130l94 18c44 9 92 18 114 63l-1 6h-105zM71 629c0 56 15 79 80 79c64 0 79 -23 79 -79s-15 -77 -79 -77c-65 0 -80 21 -80 77zM290 629c0 56 15 79 80 79c64 0 79 -23 79 -79
s-15 -77 -79 -77c-65 0 -80 21 -80 77z" />
    <glyph glyph-name="yen" unicode="&#xa5;" horiz-adv-x="560" 
d="M221 625l56 -234h6l56 234h211l-96 -256h66v-107h-106l-19 -50h125v-107h-140v-105h-200v105h-140v107h124l-18 50h-106v107h66l-96 256h211z" />
    <glyph glyph-name="z" unicode="z" horiz-adv-x="530" 
d="M25 100l196 244l-3 6h-158l-15 150h454v-100l-193 -244l3 -6h196v-150h-480v100z" />
    <glyph glyph-name="zcaron" unicode="&#x17e;" horiz-adv-x="530" 
d="M25 100l196 244l-3 6h-158l-15 150h454v-100l-193 -244l3 -6h196v-150h-480v100zM289 537h-48c-7 0 -11 4 -16 9l-113 145l60 49l93 -63l93 63l60 -49l-113 -145c-5 -5 -9 -9 -16 -9z" />
    <glyph glyph-name="zero" unicode="0" 
d="M33 312c0 217 46 328 268 328s267 -111 267 -328c0 -216 -45 -327 -267 -327s-268 111 -268 327zM239 426v-280h42c54 0 81 4 81 53v280h-47c-54 0 -76 -4 -76 -53z" />
    <glyph glyph-name="notequal" unicode="&#x2260;" 
d="M72 121v144h455v-144h-455zM72 359v144h455v-144h-455zM552 665l-389 -680c-9 -16 -15 -25 -43 -25h-71l389 680c9 16 15 25 43 25h71z" />
    <glyph glyph-name="lessequal" unicode="&#x2264;" 
d="M432 587l67 -134l-225 -89v-5l225 -88l-67 -134l-325 145v160zM107 -15v120h386v-120h-386z" />
    <glyph glyph-name="greaterequal" unicode="&#x2265;" 
d="M101 453l67 134l325 -145v-160l-325 -145l-67 134l225 88v5zM493 105v-120h-386v120h386z" />
    <glyph glyph-name="approxequal" unicode="&#x2248;" 
d="M72 121v144c32 -28 64 -38 96 -38c88 0 175 75 263 75c32 0 64 -10 96 -37v-144c-32 27 -64 37 -96 37c-88 0 -175 -75 -263 -75c-32 0 -64 10 -96 38zM72 359v144c32 -28 64 -38 96 -38c88 0 175 75 263 75c32 0 64 -10 96 -37v-144c-32 27 -64 37 -96 37
c-88 0 -175 -75 -263 -75c-32 0 -64 10 -96 38z" />
    <glyph glyph-name="lozenge" unicode="&#x25ca;" horiz-adv-x="700" 
d="M452 -150h-203l-198 387l198 388h203l197 -388zM242 238l101 -198h15l99 196l-99 195h-15z" />
    <glyph glyph-name="infinity" unicode="&#x221e;" horiz-adv-x="905" 
d="M603 -15c-81 0 -133 22 -133 32l22 62l-9 5c-51 -72 -105 -99 -181 -99c-181 0 -252 90 -252 265s69 265 245 265c85 0 139 -22 139 -32l-23 -62l9 -5c54 72 111 99 190 99c176 0 245 -90 245 -265s-71 -265 -252 -265zM662 193v156c-40 0 -72 -5 -86 -42l-56 -156h73
c40 0 69 3 69 42zM243 307v-156c40 0 72 5 86 42l56 156h-73c-40 0 -69 -3 -69 -42z" />
    <glyph glyph-name="integral" unicode="&#x222b;" horiz-adv-x="373" 
d="M281 429l-26 -470c-6 -104 -185 -117 -274 -117l-6 117c101 22 107 40 109 86l25 470c5 104 178 117 270 117l6 -117c-96 -22 -102 -40 -104 -86z" />
    <glyph glyph-name="summation" unicode="&#x2211;" horiz-adv-x="654" 
d="M598 0l-22 -150h-514l-19 52l211 309l-182 362l19 52h507l-18 -125l-184 -25c-28 -4 -44 -9 -44 -27c0 -7 2 -14 6 -23l95 -178l-167 -233l8 -14h304z" />
    <glyph glyph-name="pi" unicode="&#x3c0;" horiz-adv-x="657" 
d="M55 500h422c3 12 5 25 6 36l147 -7c0 -97 -4 -179 -78 -179v-207c16 -3 33 -6 49 -7l-9 -147c-130 0 -240 5 -240 105v256h-7c-22 -1 -49 -9 -54 -38l-56 -312h-152l25 366l-53 12v122z" />
    <glyph glyph-name="partialdiff" unicode="&#x2202;" horiz-adv-x="590" 
d="M553 319c0 -181 -82 -334 -295 -334c-154 0 -220 66 -220 194c0 168 82 276 295 276c12 0 23 -1 34 -1l3 27l-159 41v103h153c110 -47 189 -165 189 -306zM252 279l-20 -148h29c37 0 67 3 72 42l20 148h-30c-38 0 -66 -3 -71 -42z" />
    <glyph glyph-name="product" unicode="&#x220f;" horiz-adv-x="800" 
d="M53 625h546c3 12 5 25 6 36l147 -7c0 -97 -4 -179 -78 -179v-625h-200v625h-64c-36 -1 -58 -9 -61 -50l-49 -575h-177l17 634l-87 19v122z" />
    <glyph glyph-name="Omega" unicode="&#x2126;" horiz-adv-x="703" 
d="M303 250l-15 -250h-273v143l150 9l6 14c-110 39 -142 110 -142 209c0 146 59 265 324 265c266 0 324 -119 324 -265c0 -100 -34 -172 -145 -211l6 -12l150 -9v-143h-273l-15 250c42 0 71 3 74 43v187h-171c-44 0 -74 -4 -74 -50v-130c0 -46 30 -50 74 -50z" />
    <glyph glyph-name="Delta" unicode="&#x2206;" horiz-adv-x="703" 
d="M250 625h203l220 -573l-19 -52h-605l-19 52zM219 150h165c20 0 29 9 29 23c0 4 0 9 -2 14l-84 258h-10z" />
    <glyph glyph-name="radical" unicode="&#x221a;" horiz-adv-x="544" 
d="M514 552l-139 -552h-213l-162 500h207l91 -320h10l102 470h197l-13 -98h-80z" />
    <glyph glyph-name="asciitilde" unicode="~" 
d="M407 203c-86 0 -143 65 -192 65c-36 0 -65 -30 -97 -66l-106 91c46 62 100 130 178 130c73 0 132 -69 195 -69c35 0 64 22 96 66l107 -90c-41 -75 -105 -127 -181 -127z" />
    <glyph glyph-name="asciicircum" unicode="^" 
d="M548 262l-134 -44l-108 224h-6l-108 -224l-134 44l154 325h182z" />
    <glyph glyph-name="A" unicode="A" horiz-adv-x="609" 
d="M199 0h-211l162 625h309l162 -625h-211l-23 99h-165zM299 433l-41 -175h92l-40 175h-11z" />
    <glyph glyph-name="AE" unicode="&#xc6;" horiz-adv-x="811" 
d="M199 0h-211l162 625h590l-25 -160h-215l22 -84h178v-145h-140l19 -76h212v-160h-381l-23 99h-165zM299 433l-41 -175h92l-40 175h-11z" />
    <glyph glyph-name="Aacute" unicode="&#xc1;" horiz-adv-x="609" 
d="M199 0h-211l162 625h309l162 -625h-211l-23 99h-165zM299 433l-41 -175h92l-40 175h-11zM375 684l-174 -35l-41 57l189 139c3 2 7 4 11 4c7 0 13 -5 18 -11l63 -74c6 -7 9 -13 9 -18s-2 -8 -4 -11l-45 -39c-7 -6 -11 -9 -26 -12z" />
    </font>
</defs>
</svg>
